<mxfile host="Electron" modified="2023-03-07T17:25:06.015Z" agent="5.0 (Windows NT 10.0; Win64; x64) AppleWebKit/537.36 (KHTML, like Gecko) draw.io/20.8.16 Chrome/106.0.5249.199 Electron/21.4.0 Safari/537.36" etag="ZOYgj34TKNrTaynnvenx" compressed="false" version="20.8.16" type="device">
  <diagram name="Page-1" id="HDH1xoEW0HVoG3jhqZ5q">
    <mxGraphModel dx="1452" dy="846" grid="1" gridSize="10" guides="1" tooltips="1" connect="1" arrows="1" fold="1" page="1" pageScale="1" pageWidth="850" pageHeight="1100" math="0" shadow="0">
      <root>
        <mxCell id="0" />
        <mxCell id="1" parent="0" />
        <mxCell id="pQi_TNxkMac2TIVI0rjQ-44" value="" style="strokeWidth=1;shadow=0;dashed=0;align=center;shape=mxgraph.mockup.containers.browserWindow;rSize=0;strokeColor=#666666;strokeColor2=#008cff;strokeColor3=#c4c4c4;mainText=,;recursiveResize=0;fillColor=none;fontSize=12;html=1;" vertex="1" parent="1">
          <mxGeometry x="400" y="620" width="420" height="200" as="geometry" />
        </mxCell>
        <mxCell id="pQi_TNxkMac2TIVI0rjQ-45" value="Page 1" style="strokeWidth=1;shadow=0;dashed=0;align=center;html=1;shape=mxgraph.mockup.containers.anchor;fontSize=17;fontColor=#666666;align=left;fillColor=none;" vertex="1" parent="pQi_TNxkMac2TIVI0rjQ-44">
          <mxGeometry x="60" y="12" width="110" height="26" as="geometry" />
        </mxCell>
        <mxCell id="pQi_TNxkMac2TIVI0rjQ-46" value="https://www.draw.io" style="strokeWidth=1;shadow=0;dashed=0;align=center;html=1;shape=mxgraph.mockup.containers.anchor;rSize=0;fontSize=17;fontColor=#666666;align=left;fillColor=none;" vertex="1" parent="pQi_TNxkMac2TIVI0rjQ-44">
          <mxGeometry x="130" y="60" width="250" height="26" as="geometry" />
        </mxCell>
        <mxCell id="pQi_TNxkMac2TIVI0rjQ-22" value="Count: 42" style="text;html=1;align=center;verticalAlign=middle;resizable=0;points=[];autosize=1;strokeColor=none;fillColor=none;" vertex="1" parent="pQi_TNxkMac2TIVI0rjQ-44">
          <mxGeometry x="10" y="120" width="80" height="30" as="geometry" />
        </mxCell>
        <mxCell id="pQi_TNxkMac2TIVI0rjQ-48" value="Increment" style="strokeWidth=1;shadow=0;dashed=0;align=center;html=1;shape=mxgraph.mockup.buttons.button;strokeColor=#666666;fontColor=#ffffff;mainText=;buttonStyle=round;fontSize=17;fontStyle=1;fillColor=#008cff;whiteSpace=wrap;" vertex="1" parent="pQi_TNxkMac2TIVI0rjQ-44">
          <mxGeometry x="170" y="120" width="150" height="50" as="geometry" />
        </mxCell>
        <mxCell id="pQi_TNxkMac2TIVI0rjQ-40" value="Store" style="rounded=0;whiteSpace=wrap;html=1;fillColor=none;" vertex="1" parent="1">
          <mxGeometry x="410" y="360" width="290" height="192.5" as="geometry" />
        </mxCell>
        <mxCell id="pQi_TNxkMac2TIVI0rjQ-32" value="" style="edgeStyle=orthogonalEdgeStyle;rounded=0;orthogonalLoop=1;jettySize=auto;html=1;" edge="1" parent="1" source="pQi_TNxkMac2TIVI0rjQ-2" target="pQi_TNxkMac2TIVI0rjQ-10">
          <mxGeometry relative="1" as="geometry" />
        </mxCell>
        <mxCell id="pQi_TNxkMac2TIVI0rjQ-2" value="" style="verticalLabelPosition=bottom;html=1;verticalAlign=top;align=center;strokeColor=none;fillColor=#00BEF2;shape=mxgraph.azure.automation;pointerEvents=1;" vertex="1" parent="1">
          <mxGeometry x="290" y="100" width="50" height="45" as="geometry" />
        </mxCell>
        <mxCell id="pQi_TNxkMac2TIVI0rjQ-47" style="edgeStyle=orthogonalEdgeStyle;rounded=0;orthogonalLoop=1;jettySize=auto;html=1;fontSize=12;" edge="1" parent="1" source="pQi_TNxkMac2TIVI0rjQ-7" target="pQi_TNxkMac2TIVI0rjQ-22">
          <mxGeometry relative="1" as="geometry" />
        </mxCell>
        <mxCell id="pQi_TNxkMac2TIVI0rjQ-7" value="CounterState" style="shape=image;imageAspect=0;aspect=fixed;verticalLabelPosition=bottom;verticalAlign=top;image=data:image/svg+xml,PHN2ZyB4bWxuczp4bGluaz0iaHR0cDovL3d3dy53My5vcmcvMTk5OS94bGluayIgeG1sbnM9Imh0dHA6Ly93d3cudzMub3JnLzIwMDAvc3ZnIiB4bWw6c3BhY2U9InByZXNlcnZlIiB2aWV3Qm94PSIwIDAgMjkyLjExMSAyOTIuMTEiIGhlaWdodD0iODAwcHgiIHdpZHRoPSI4MDBweCIgaWQ9IkNhcGFfMSIgdmVyc2lvbj0iMS4xIj4mI3hhOzxnPiYjeGE7CTxnPiYjeGE7CQk8cGF0aCBkPSJNMjI4LjI0NiwyOTIuMTFIMTI5LjA1bDEwLjc5LTI0LjYwOWMxLjU1OS0zLjU0NiwyLjMzOS03LjMwOSwyLjMzOS0xMS4yMDgmIzEwOyYjOTsmIzk7JiM5O2MwLTE1LjQ2Ny0xMi41ODUtMjguMDUzLTI4LjA1My0yOC4wNTNjLTE1LjQ3LDAtMjguMDUyLDEyLjU4Ni0yOC4wNTIsMjguMDUzYzAsMy44OTksMC43ODMsNy42NzQsMi4zMywxMS4yMDhsMTAuNzcyLDI0LjYwNCYjMTA7JiM5OyYjOTsmIzk7SDAuMDA1VjYzLjg2OGg5MC42OTljMC4xNzQtMC4yNTcsMC4yNzQtMC41MzgsMC4yNzQtMC43NmMwLTAuMDM0LDAtMC4wNzItMC4wMDYtMC4xMDZjLTAuODU0LTAuNzI2LTEuNTI5LTEuMzA3LTIuNDMtMi4xOSYjMTA7JiM5OyYjOTsmIzk7QzgxLjkxNiw1My45OSw3OC4zMTksNDUuMTUsNzguMzE5LDM1LjgxQzc4LjMxOSwxNi4wNjUsOTQuMzg3LDAsMTE0LjEzMSwwczM1LjgxLDE2LjA2NSwzNS44MSwzNS44MSYjMTA7JiM5OyYjOTsmIzk7YzAsOS4zNTItMy41OTQsMTguMTkxLTEwLjEyNCwyNC44OTZsLTIuMjQyLDEuOTg3Yy0wLjA4MywwLjE5Mi0wLjExMSwwLjMzMi0wLjExMSwwLjQwM2MwLDAuMjU3LDAuMSwwLjUyMSwwLjI2MywwLjc2MWg5MC41MTkmIzEwOyYjOTsmIzk7JiM5O3Y5MC42MjJjMC4yNTIsMC4xMzcsMC41NzIsMC4yNDUsMC44ODcsMC4yNDVjMC41NDMtMC41NzcsMS4yMTItMS4zNjYsMi4xNzgtMi4zMzhjNi44MjItNi42MTksMTUuNjY4LTEwLjIxNiwyNC45ODgtMTAuMjE2JiMxMDsmIzk7JiM5OyYjOTtjMTkuNzM4LDAsMzUuODA3LDE2LjA3MSwzNS44MDcsMzUuODFjMCwxOS43NS0xNi4wNjgsMzUuODEyLTM1LjgwNywzNS44MTJjLTkuMzMyLDAtMTguMTc4LTMuNTk3LTI0LjkwOC0xMC4xMzhsLTEuOTc4LTIuMTYyJiMxMDsmIzk7JiM5OyYjOTtjLTAuMzY2LTAuMDU3LTAuODQxLDAuMDQxLTEuMTY3LDAuMjA2VjI5Mi4xMXogTTE0Ni45NzMsMjgwLjRoNjkuNTYydi04MC4xNzljMC0xLjM5NSwwLjM3MS0yLjc3MiwxLjA3NC0zLjk1NiYjMTA7JiM5OyYjOTsmIzk7YzMuNTM0LTYuMDk2LDEyLjUzNC04LjM4MywxOC42My00LjQwM2wxLjE1NCwwLjk5NWwyLjE2OCwyLjQxM2M0LjUyMiw0LjM5MiwxMC40Nyw2LjgxNiwxNi43MzYsNi44MTYmIzEwOyYjOTsmIzk7JiM5O2MxMy4yODksMCwyNC4wOTYtMTAuODEzLDI0LjA5Ni0yNC4wOTZjMC0xMy4yODktMTAuODEyLTI0LjEwNy0yNC4wOTYtMjQuMTA3Yy02LjI2MiwwLTEyLjIxNCwyLjQyNC0xNi43NDgsNi44MjcmIzEwOyYjOTsmIzk7JiM5O2MtMC41MjEsMC41MjYtMC45MjcsMS4wMjktMS4zMzIsMS41MjZjLTAuNzQ0LDAuOTMzLTEuNzM4LDEuODgxLTIuNTYyLDIuNDM2Yy03LjIzOCw0LjAzMS0xNC42NDksMS4wNzUtMTguMDU3LTQuNzg1JiMxMDsmIzk7JiM5OyYjOTtjLTAuNzAzLTEuMjI0LTEuMDYzLTIuNTYyLTEuMDYzLTMuOTM1Vjc1LjU3OGgtODAuMTczYy0xLjM2OSwwLTIuNzIyLTAuMzYzLTMuOTA1LTEuMDQxYy00LjEzNC0yLjM5LTYuNjk5LTYuNzctNi42OTktMTEuNDMmIzEwOyYjOTsmIzk7JiM5O2MwLTIuNDkzLDAuNzc4LTQuOTk1LDIuMjU2LTcuMjQybDEuNjE1LTEuNzg3bDEuNTk4LTEuMzQxYzQuNjQ5LTQuODc3LDYuOTk2LTEwLjczMiw2Ljk5Ni0xNi45MjgmIzEwOyYjOTsmIzk7JiM5O2MwLTEzLjI5Mi0xMC44MDctMjQuMDk5LTI0LjA5OS0yNC4wOTljLTEzLjI5MiwwLTI0LjEwMSwxMC44MDctMjQuMTAxLDI0LjA5OWMwLDYuMjcyLDIuNDI0LDEyLjIxNCw2LjgxNiwxNi43NDImIzEwOyYjOTsmIzk7JiM5O2MwLjUyNiwwLjUxNSwwLjk3OCwwLjg4OSwxLjQyNCwxLjI0MWMwLjk5NSwwLjgsMS45NzgsMS44MzMsMi41MzMsMi42NTZjMS4zNDEsMi40MDgsMS44ODcsNC41MzIsMS44ODcsNi42NTMmIzEwOyYjOTsmIzk7JiM5O2MwLDQuNjQzLTIuNTQ3LDkuMDEyLTYuNjUzLDExLjM5OGMtMS4yMDYsMC43MDQtMi41NywxLjA3Mi0zLjk1MSwxLjA3MkgxMS43MTZ2MjA0LjgxNkg4MS4yN2wtMy41ODgtOC4xOTkmIzEwOyYjOTsmIzk7JiM5O2MtMi4xOTYtNS4wMjYtMy4zMTQtMTAuMzczLTMuMzE0LTE1Ljg5NmMwLTIxLjkyMywxNy44MzQtMzkuNzYzLDM5Ljc2My0zOS43NjNjMjEuOTI2LDAsMzkuNzYzLDE3Ljg0LDM5Ljc2MywzOS43NjMmIzEwOyYjOTsmIzk7JiM5O2MwLDUuNTI5LTEuMTE0LDEwLjg3Ni0zLjMyMiwxNS45MDdMMTQ2Ljk3MywyODAuNHoiIHN0eWxlPSJmaWxsOiMwMzAzMDM7Ii8+JiN4YTsJPC9nPiYjeGE7PC9nPiYjeGE7PC9zdmc+;" vertex="1" parent="1">
          <mxGeometry x="450" y="473" width="50" height="50" as="geometry" />
        </mxCell>
        <mxCell id="pQi_TNxkMac2TIVI0rjQ-24" value="" style="edgeStyle=orthogonalEdgeStyle;rounded=0;orthogonalLoop=1;jettySize=auto;html=1;" edge="1" parent="1" source="pQi_TNxkMac2TIVI0rjQ-8" target="pQi_TNxkMac2TIVI0rjQ-19">
          <mxGeometry relative="1" as="geometry" />
        </mxCell>
        <mxCell id="pQi_TNxkMac2TIVI0rjQ-8" value="" style="sketch=0;html=1;aspect=fixed;strokeColor=none;shadow=0;align=center;verticalAlign=top;fillColor=#3B8DF1;shape=mxgraph.gcp2.gear_chain" vertex="1" parent="1">
          <mxGeometry x="290" y="280" width="50" height="50" as="geometry" />
        </mxCell>
        <mxCell id="pQi_TNxkMac2TIVI0rjQ-31" value="" style="edgeStyle=orthogonalEdgeStyle;rounded=0;orthogonalLoop=1;jettySize=auto;html=1;" edge="1" parent="1" source="pQi_TNxkMac2TIVI0rjQ-10" target="pQi_TNxkMac2TIVI0rjQ-8">
          <mxGeometry relative="1" as="geometry" />
        </mxCell>
        <mxCell id="pQi_TNxkMac2TIVI0rjQ-10" value="Mediator" style="html=1;verticalLabelPosition=bottom;align=center;labelBackgroundColor=#ffffff;verticalAlign=top;strokeWidth=2;strokeColor=#0080F0;shadow=0;dashed=0;shape=mxgraph.ios7.icons.map;" vertex="1" parent="1">
          <mxGeometry x="300" y="200" width="30" height="30" as="geometry" />
        </mxCell>
        <mxCell id="pQi_TNxkMac2TIVI0rjQ-25" value="" style="edgeStyle=orthogonalEdgeStyle;rounded=0;orthogonalLoop=1;jettySize=auto;html=1;" edge="1" parent="1" source="pQi_TNxkMac2TIVI0rjQ-19" target="pQi_TNxkMac2TIVI0rjQ-23">
          <mxGeometry relative="1" as="geometry" />
        </mxCell>
        <mxCell id="pQi_TNxkMac2TIVI0rjQ-19" value="" style="sketch=0;html=1;aspect=fixed;strokeColor=none;shadow=0;align=center;verticalAlign=middle;fillColor=#3B8DF1;shape=mxgraph.gcp2.gear_chain" vertex="1" parent="1">
          <mxGeometry x="290" y="380" width="50" height="50" as="geometry" />
        </mxCell>
        <mxCell id="pQi_TNxkMac2TIVI0rjQ-41" value="" style="edgeStyle=orthogonalEdgeStyle;rounded=0;orthogonalLoop=1;jettySize=auto;html=1;" edge="1" parent="1" source="pQi_TNxkMac2TIVI0rjQ-20" target="pQi_TNxkMac2TIVI0rjQ-30">
          <mxGeometry relative="1" as="geometry" />
        </mxCell>
        <mxCell id="pQi_TNxkMac2TIVI0rjQ-20" value="" style="sketch=0;html=1;aspect=fixed;strokeColor=none;shadow=0;align=center;verticalAlign=top;fillColor=#3B8DF1;shape=mxgraph.gcp2.gear_chain" vertex="1" parent="1">
          <mxGeometry x="290" y="565" width="50" height="50" as="geometry" />
        </mxCell>
        <mxCell id="pQi_TNxkMac2TIVI0rjQ-21" value="Preprocessors" style="text;html=1;align=center;verticalAlign=middle;resizable=0;points=[];autosize=1;strokeColor=none;fillColor=none;" vertex="1" parent="1">
          <mxGeometry x="190" y="290" width="100" height="30" as="geometry" />
        </mxCell>
        <mxCell id="pQi_TNxkMac2TIVI0rjQ-26" value="" style="edgeStyle=orthogonalEdgeStyle;rounded=0;orthogonalLoop=1;jettySize=auto;html=1;" edge="1" parent="1" source="pQi_TNxkMac2TIVI0rjQ-23" target="pQi_TNxkMac2TIVI0rjQ-20">
          <mxGeometry relative="1" as="geometry" />
        </mxCell>
        <mxCell id="pQi_TNxkMac2TIVI0rjQ-43" value="" style="edgeStyle=orthogonalEdgeStyle;rounded=0;orthogonalLoop=1;jettySize=auto;html=1;" edge="1" parent="1" source="pQi_TNxkMac2TIVI0rjQ-23" target="pQi_TNxkMac2TIVI0rjQ-7">
          <mxGeometry relative="1" as="geometry" />
        </mxCell>
        <mxCell id="pQi_TNxkMac2TIVI0rjQ-23" value="" style="sketch=0;html=1;aspect=fixed;strokeColor=none;shadow=0;align=center;verticalAlign=top;fillColor=#3B8DF1;shape=mxgraph.gcp2.capabilities" vertex="1" parent="1">
          <mxGeometry x="265" y="460" width="100" height="76" as="geometry" />
        </mxCell>
        <mxCell id="pQi_TNxkMac2TIVI0rjQ-27" value="Behaviors" style="text;html=1;align=center;verticalAlign=middle;resizable=0;points=[];autosize=1;strokeColor=none;fillColor=none;" vertex="1" parent="1">
          <mxGeometry x="205" y="390" width="80" height="30" as="geometry" />
        </mxCell>
        <mxCell id="pQi_TNxkMac2TIVI0rjQ-28" value="Handler" style="text;html=1;align=center;verticalAlign=middle;resizable=0;points=[];autosize=1;strokeColor=none;fillColor=none;" vertex="1" parent="1">
          <mxGeometry x="195" y="483" width="70" height="30" as="geometry" />
        </mxCell>
        <mxCell id="pQi_TNxkMac2TIVI0rjQ-29" value="PostProcessors" style="text;html=1;align=center;verticalAlign=middle;resizable=0;points=[];autosize=1;strokeColor=none;fillColor=none;" vertex="1" parent="1">
          <mxGeometry x="175" y="575" width="110" height="30" as="geometry" />
        </mxCell>
        <mxCell id="pQi_TNxkMac2TIVI0rjQ-57" style="edgeStyle=orthogonalEdgeStyle;rounded=0;orthogonalLoop=1;jettySize=auto;html=1;entryX=-0.002;entryY=0.347;entryDx=0;entryDy=0;entryPerimeter=0;fontSize=12;" edge="1" parent="1" source="pQi_TNxkMac2TIVI0rjQ-30" target="pQi_TNxkMac2TIVI0rjQ-44">
          <mxGeometry relative="1" as="geometry" />
        </mxCell>
        <mxCell id="pQi_TNxkMac2TIVI0rjQ-30" value="" style="sketch=0;html=1;aspect=fixed;strokeColor=none;shadow=0;align=center;verticalAlign=top;fillColor=#3B8DF1;shape=mxgraph.gcp2.gear_arrow" vertex="1" parent="1">
          <mxGeometry x="265" y="660" width="100" height="61" as="geometry" />
        </mxCell>
        <mxCell id="pQi_TNxkMac2TIVI0rjQ-33" value="" style="shape=curlyBracket;whiteSpace=wrap;html=1;rounded=1;labelPosition=left;verticalLabelPosition=middle;align=left;verticalAlign=middle;" vertex="1" parent="1">
          <mxGeometry x="110" y="280" width="20" height="440" as="geometry" />
        </mxCell>
        <mxCell id="pQi_TNxkMac2TIVI0rjQ-36" value="Mediator Pipeline" style="text;html=1;align=center;verticalAlign=middle;resizable=0;points=[];autosize=1;strokeColor=none;fillColor=none;" vertex="1" parent="1">
          <mxGeometry y="485" width="110" height="30" as="geometry" />
        </mxCell>
        <mxCell id="pQi_TNxkMac2TIVI0rjQ-42" value="SubscriptionNotification" style="text;html=1;align=center;verticalAlign=middle;resizable=0;points=[];autosize=1;strokeColor=none;fillColor=none;" vertex="1" parent="1">
          <mxGeometry x="120" y="690" width="150" height="30" as="geometry" />
        </mxCell>
        <mxCell id="pQi_TNxkMac2TIVI0rjQ-49" style="edgeStyle=orthogonalEdgeStyle;rounded=0;orthogonalLoop=1;jettySize=auto;html=1;entryX=0.9;entryY=0.77;entryDx=0;entryDy=0;entryPerimeter=0;fontSize=12;" edge="1" parent="1" source="pQi_TNxkMac2TIVI0rjQ-48" target="pQi_TNxkMac2TIVI0rjQ-2">
          <mxGeometry relative="1" as="geometry">
            <Array as="points">
              <mxPoint x="770" y="765" />
              <mxPoint x="770" y="135" />
            </Array>
          </mxGeometry>
        </mxCell>
        <mxCell id="pQi_TNxkMac2TIVI0rjQ-50" value="WeatherForecastState" style="shape=image;imageAspect=0;aspect=fixed;verticalLabelPosition=bottom;verticalAlign=top;image=data:image/svg+xml,PHN2ZyB4bWxuczp4bGluaz0iaHR0cDovL3d3dy53My5vcmcvMTk5OS94bGluayIgeG1sbnM9Imh0dHA6Ly93d3cudzMub3JnLzIwMDAvc3ZnIiB4bWw6c3BhY2U9InByZXNlcnZlIiB2aWV3Qm94PSIwIDAgMjkyLjExMSAyOTIuMTEiIGhlaWdodD0iODAwcHgiIHdpZHRoPSI4MDBweCIgaWQ9IkNhcGFfMSIgdmVyc2lvbj0iMS4xIj4mI3hhOzxnPiYjeGE7CTxnPiYjeGE7CQk8cGF0aCBkPSJNMjI4LjI0NiwyOTIuMTFIMTI5LjA1bDEwLjc5LTI0LjYwOWMxLjU1OS0zLjU0NiwyLjMzOS03LjMwOSwyLjMzOS0xMS4yMDgmIzEwOyYjOTsmIzk7JiM5O2MwLTE1LjQ2Ny0xMi41ODUtMjguMDUzLTI4LjA1My0yOC4wNTNjLTE1LjQ3LDAtMjguMDUyLDEyLjU4Ni0yOC4wNTIsMjguMDUzYzAsMy44OTksMC43ODMsNy42NzQsMi4zMywxMS4yMDhsMTAuNzcyLDI0LjYwNCYjMTA7JiM5OyYjOTsmIzk7SDAuMDA1VjYzLjg2OGg5MC42OTljMC4xNzQtMC4yNTcsMC4yNzQtMC41MzgsMC4yNzQtMC43NmMwLTAuMDM0LDAtMC4wNzItMC4wMDYtMC4xMDZjLTAuODU0LTAuNzI2LTEuNTI5LTEuMzA3LTIuNDMtMi4xOSYjMTA7JiM5OyYjOTsmIzk7QzgxLjkxNiw1My45OSw3OC4zMTksNDUuMTUsNzguMzE5LDM1LjgxQzc4LjMxOSwxNi4wNjUsOTQuMzg3LDAsMTE0LjEzMSwwczM1LjgxLDE2LjA2NSwzNS44MSwzNS44MSYjMTA7JiM5OyYjOTsmIzk7YzAsOS4zNTItMy41OTQsMTguMTkxLTEwLjEyNCwyNC44OTZsLTIuMjQyLDEuOTg3Yy0wLjA4MywwLjE5Mi0wLjExMSwwLjMzMi0wLjExMSwwLjQwM2MwLDAuMjU3LDAuMSwwLjUyMSwwLjI2MywwLjc2MWg5MC41MTkmIzEwOyYjOTsmIzk7JiM5O3Y5MC42MjJjMC4yNTIsMC4xMzcsMC41NzIsMC4yNDUsMC44ODcsMC4yNDVjMC41NDMtMC41NzcsMS4yMTItMS4zNjYsMi4xNzgtMi4zMzhjNi44MjItNi42MTksMTUuNjY4LTEwLjIxNiwyNC45ODgtMTAuMjE2JiMxMDsmIzk7JiM5OyYjOTtjMTkuNzM4LDAsMzUuODA3LDE2LjA3MSwzNS44MDcsMzUuODFjMCwxOS43NS0xNi4wNjgsMzUuODEyLTM1LjgwNywzNS44MTJjLTkuMzMyLDAtMTguMTc4LTMuNTk3LTI0LjkwOC0xMC4xMzhsLTEuOTc4LTIuMTYyJiMxMDsmIzk7JiM5OyYjOTtjLTAuMzY2LTAuMDU3LTAuODQxLDAuMDQxLTEuMTY3LDAuMjA2VjI5Mi4xMXogTTE0Ni45NzMsMjgwLjRoNjkuNTYydi04MC4xNzljMC0xLjM5NSwwLjM3MS0yLjc3MiwxLjA3NC0zLjk1NiYjMTA7JiM5OyYjOTsmIzk7YzMuNTM0LTYuMDk2LDEyLjUzNC04LjM4MywxOC42My00LjQwM2wxLjE1NCwwLjk5NWwyLjE2OCwyLjQxM2M0LjUyMiw0LjM5MiwxMC40Nyw2LjgxNiwxNi43MzYsNi44MTYmIzEwOyYjOTsmIzk7JiM5O2MxMy4yODksMCwyNC4wOTYtMTAuODEzLDI0LjA5Ni0yNC4wOTZjMC0xMy4yODktMTAuODEyLTI0LjEwNy0yNC4wOTYtMjQuMTA3Yy02LjI2MiwwLTEyLjIxNCwyLjQyNC0xNi43NDgsNi44MjcmIzEwOyYjOTsmIzk7JiM5O2MtMC41MjEsMC41MjYtMC45MjcsMS4wMjktMS4zMzIsMS41MjZjLTAuNzQ0LDAuOTMzLTEuNzM4LDEuODgxLTIuNTYyLDIuNDM2Yy03LjIzOCw0LjAzMS0xNC42NDksMS4wNzUtMTguMDU3LTQuNzg1JiMxMDsmIzk7JiM5OyYjOTtjLTAuNzAzLTEuMjI0LTEuMDYzLTIuNTYyLTEuMDYzLTMuOTM1Vjc1LjU3OGgtODAuMTczYy0xLjM2OSwwLTIuNzIyLTAuMzYzLTMuOTA1LTEuMDQxYy00LjEzNC0yLjM5LTYuNjk5LTYuNzctNi42OTktMTEuNDMmIzEwOyYjOTsmIzk7JiM5O2MwLTIuNDkzLDAuNzc4LTQuOTk1LDIuMjU2LTcuMjQybDEuNjE1LTEuNzg3bDEuNTk4LTEuMzQxYzQuNjQ5LTQuODc3LDYuOTk2LTEwLjczMiw2Ljk5Ni0xNi45MjgmIzEwOyYjOTsmIzk7JiM5O2MwLTEzLjI5Mi0xMC44MDctMjQuMDk5LTI0LjA5OS0yNC4wOTljLTEzLjI5MiwwLTI0LjEwMSwxMC44MDctMjQuMTAxLDI0LjA5OWMwLDYuMjcyLDIuNDI0LDEyLjIxNCw2LjgxNiwxNi43NDImIzEwOyYjOTsmIzk7JiM5O2MwLjUyNiwwLjUxNSwwLjk3OCwwLjg4OSwxLjQyNCwxLjI0MWMwLjk5NSwwLjgsMS45NzgsMS44MzMsMi41MzMsMi42NTZjMS4zNDEsMi40MDgsMS44ODcsNC41MzIsMS44ODcsNi42NTMmIzEwOyYjOTsmIzk7JiM5O2MwLDQuNjQzLTIuNTQ3LDkuMDEyLTYuNjUzLDExLjM5OGMtMS4yMDYsMC43MDQtMi41NywxLjA3Mi0zLjk1MSwxLjA3MkgxMS43MTZ2MjA0LjgxNkg4MS4yN2wtMy41ODgtOC4xOTkmIzEwOyYjOTsmIzk7JiM5O2MtMi4xOTYtNS4wMjYtMy4zMTQtMTAuMzczLTMuMzE0LTE1Ljg5NmMwLTIxLjkyMywxNy44MzQtMzkuNzYzLDM5Ljc2My0zOS43NjNjMjEuOTI2LDAsMzkuNzYzLDE3Ljg0LDM5Ljc2MywzOS43NjMmIzEwOyYjOTsmIzk7JiM5O2MwLDUuNTI5LTEuMTE0LDEwLjg3Ni0zLjMyMiwxNS45MDdMMTQ2Ljk3MywyODAuNHoiIHN0eWxlPSJmaWxsOiMwMzAzMDM7Ii8+JiN4YTsJPC9nPiYjeGE7PC9nPiYjeGE7PC9zdmc+;" vertex="1" parent="1">
          <mxGeometry x="460" y="370" width="50" height="50" as="geometry" />
        </mxCell>
        <mxCell id="pQi_TNxkMac2TIVI0rjQ-52" value="NotificationState" style="shape=image;imageAspect=0;aspect=fixed;verticalLabelPosition=bottom;verticalAlign=top;image=data:image/svg+xml,PHN2ZyB4bWxuczp4bGluaz0iaHR0cDovL3d3dy53My5vcmcvMTk5OS94bGluayIgeG1sbnM9Imh0dHA6Ly93d3cudzMub3JnLzIwMDAvc3ZnIiB4bWw6c3BhY2U9InByZXNlcnZlIiB2aWV3Qm94PSIwIDAgMjkyLjExMSAyOTIuMTEiIGhlaWdodD0iODAwcHgiIHdpZHRoPSI4MDBweCIgaWQ9IkNhcGFfMSIgdmVyc2lvbj0iMS4xIj4mI3hhOzxnPiYjeGE7CTxnPiYjeGE7CQk8cGF0aCBkPSJNMjI4LjI0NiwyOTIuMTFIMTI5LjA1bDEwLjc5LTI0LjYwOWMxLjU1OS0zLjU0NiwyLjMzOS03LjMwOSwyLjMzOS0xMS4yMDgmIzEwOyYjOTsmIzk7JiM5O2MwLTE1LjQ2Ny0xMi41ODUtMjguMDUzLTI4LjA1My0yOC4wNTNjLTE1LjQ3LDAtMjguMDUyLDEyLjU4Ni0yOC4wNTIsMjguMDUzYzAsMy44OTksMC43ODMsNy42NzQsMi4zMywxMS4yMDhsMTAuNzcyLDI0LjYwNCYjMTA7JiM5OyYjOTsmIzk7SDAuMDA1VjYzLjg2OGg5MC42OTljMC4xNzQtMC4yNTcsMC4yNzQtMC41MzgsMC4yNzQtMC43NmMwLTAuMDM0LDAtMC4wNzItMC4wMDYtMC4xMDZjLTAuODU0LTAuNzI2LTEuNTI5LTEuMzA3LTIuNDMtMi4xOSYjMTA7JiM5OyYjOTsmIzk7QzgxLjkxNiw1My45OSw3OC4zMTksNDUuMTUsNzguMzE5LDM1LjgxQzc4LjMxOSwxNi4wNjUsOTQuMzg3LDAsMTE0LjEzMSwwczM1LjgxLDE2LjA2NSwzNS44MSwzNS44MSYjMTA7JiM5OyYjOTsmIzk7YzAsOS4zNTItMy41OTQsMTguMTkxLTEwLjEyNCwyNC44OTZsLTIuMjQyLDEuOTg3Yy0wLjA4MywwLjE5Mi0wLjExMSwwLjMzMi0wLjExMSwwLjQwM2MwLDAuMjU3LDAuMSwwLjUyMSwwLjI2MywwLjc2MWg5MC41MTkmIzEwOyYjOTsmIzk7JiM5O3Y5MC42MjJjMC4yNTIsMC4xMzcsMC41NzIsMC4yNDUsMC44ODcsMC4yNDVjMC41NDMtMC41NzcsMS4yMTItMS4zNjYsMi4xNzgtMi4zMzhjNi44MjItNi42MTksMTUuNjY4LTEwLjIxNiwyNC45ODgtMTAuMjE2JiMxMDsmIzk7JiM5OyYjOTtjMTkuNzM4LDAsMzUuODA3LDE2LjA3MSwzNS44MDcsMzUuODFjMCwxOS43NS0xNi4wNjgsMzUuODEyLTM1LjgwNywzNS44MTJjLTkuMzMyLDAtMTguMTc4LTMuNTk3LTI0LjkwOC0xMC4xMzhsLTEuOTc4LTIuMTYyJiMxMDsmIzk7JiM5OyYjOTtjLTAuMzY2LTAuMDU3LTAuODQxLDAuMDQxLTEuMTY3LDAuMjA2VjI5Mi4xMXogTTE0Ni45NzMsMjgwLjRoNjkuNTYydi04MC4xNzljMC0xLjM5NSwwLjM3MS0yLjc3MiwxLjA3NC0zLjk1NiYjMTA7JiM5OyYjOTsmIzk7YzMuNTM0LTYuMDk2LDEyLjUzNC04LjM4MywxOC42My00LjQwM2wxLjE1NCwwLjk5NWwyLjE2OCwyLjQxM2M0LjUyMiw0LjM5MiwxMC40Nyw2LjgxNiwxNi43MzYsNi44MTYmIzEwOyYjOTsmIzk7JiM5O2MxMy4yODksMCwyNC4wOTYtMTAuODEzLDI0LjA5Ni0yNC4wOTZjMC0xMy4yODktMTAuODEyLTI0LjEwNy0yNC4wOTYtMjQuMTA3Yy02LjI2MiwwLTEyLjIxNCwyLjQyNC0xNi43NDgsNi44MjcmIzEwOyYjOTsmIzk7JiM5O2MtMC41MjEsMC41MjYtMC45MjcsMS4wMjktMS4zMzIsMS41MjZjLTAuNzQ0LDAuOTMzLTEuNzM4LDEuODgxLTIuNTYyLDIuNDM2Yy03LjIzOCw0LjAzMS0xNC42NDksMS4wNzUtMTguMDU3LTQuNzg1JiMxMDsmIzk7JiM5OyYjOTtjLTAuNzAzLTEuMjI0LTEuMDYzLTIuNTYyLTEuMDYzLTMuOTM1Vjc1LjU3OGgtODAuMTczYy0xLjM2OSwwLTIuNzIyLTAuMzYzLTMuOTA1LTEuMDQxYy00LjEzNC0yLjM5LTYuNjk5LTYuNzctNi42OTktMTEuNDMmIzEwOyYjOTsmIzk7JiM5O2MwLTIuNDkzLDAuNzc4LTQuOTk1LDIuMjU2LTcuMjQybDEuNjE1LTEuNzg3bDEuNTk4LTEuMzQxYzQuNjQ5LTQuODc3LDYuOTk2LTEwLjczMiw2Ljk5Ni0xNi45MjgmIzEwOyYjOTsmIzk7JiM5O2MwLTEzLjI5Mi0xMC44MDctMjQuMDk5LTI0LjA5OS0yNC4wOTljLTEzLjI5MiwwLTI0LjEwMSwxMC44MDctMjQuMTAxLDI0LjA5OWMwLDYuMjcyLDIuNDI0LDEyLjIxNCw2LjgxNiwxNi43NDImIzEwOyYjOTsmIzk7JiM5O2MwLjUyNiwwLjUxNSwwLjk3OCwwLjg4OSwxLjQyNCwxLjI0MWMwLjk5NSwwLjgsMS45NzgsMS44MzMsMi41MzMsMi42NTZjMS4zNDEsMi40MDgsMS44ODcsNC41MzIsMS44ODcsNi42NTMmIzEwOyYjOTsmIzk7JiM5O2MwLDQuNjQzLTIuNTQ3LDkuMDEyLTYuNjUzLDExLjM5OGMtMS4yMDYsMC43MDQtMi41NywxLjA3Mi0zLjk1MSwxLjA3MkgxMS43MTZ2MjA0LjgxNkg4MS4yN2wtMy41ODgtOC4xOTkmIzEwOyYjOTsmIzk7JiM5O2MtMi4xOTYtNS4wMjYtMy4zMTQtMTAuMzczLTMuMzE0LTE1Ljg5NmMwLTIxLjkyMywxNy44MzQtMzkuNzYzLDM5Ljc2My0zOS43NjNjMjEuOTI2LDAsMzkuNzYzLDE3Ljg0LDM5Ljc2MywzOS43NjMmIzEwOyYjOTsmIzk7JiM5O2MwLDUuNTI5LTEuMTE0LDEwLjg3Ni0zLjMyMiwxNS45MDdMMTQ2Ljk3MywyODAuNHoiIHN0eWxlPSJmaWxsOiMwMzAzMDM7Ii8+JiN4YTsJPC9nPiYjeGE7PC9nPiYjeGE7PC9zdmc+;" vertex="1" parent="1">
          <mxGeometry x="600" y="463" width="50" height="50" as="geometry" />
        </mxCell>
        <mxCell id="pQi_TNxkMac2TIVI0rjQ-53" value="AnalyticsState" style="shape=image;imageAspect=0;aspect=fixed;verticalLabelPosition=bottom;verticalAlign=top;image=data:image/svg+xml,PHN2ZyB4bWxuczp4bGluaz0iaHR0cDovL3d3dy53My5vcmcvMTk5OS94bGluayIgeG1sbnM9Imh0dHA6Ly93d3cudzMub3JnLzIwMDAvc3ZnIiB4bWw6c3BhY2U9InByZXNlcnZlIiB2aWV3Qm94PSIwIDAgMjkyLjExMSAyOTIuMTEiIGhlaWdodD0iODAwcHgiIHdpZHRoPSI4MDBweCIgaWQ9IkNhcGFfMSIgdmVyc2lvbj0iMS4xIj4mI3hhOzxnPiYjeGE7CTxnPiYjeGE7CQk8cGF0aCBkPSJNMjI4LjI0NiwyOTIuMTFIMTI5LjA1bDEwLjc5LTI0LjYwOWMxLjU1OS0zLjU0NiwyLjMzOS03LjMwOSwyLjMzOS0xMS4yMDgmIzEwOyYjOTsmIzk7JiM5O2MwLTE1LjQ2Ny0xMi41ODUtMjguMDUzLTI4LjA1My0yOC4wNTNjLTE1LjQ3LDAtMjguMDUyLDEyLjU4Ni0yOC4wNTIsMjguMDUzYzAsMy44OTksMC43ODMsNy42NzQsMi4zMywxMS4yMDhsMTAuNzcyLDI0LjYwNCYjMTA7JiM5OyYjOTsmIzk7SDAuMDA1VjYzLjg2OGg5MC42OTljMC4xNzQtMC4yNTcsMC4yNzQtMC41MzgsMC4yNzQtMC43NmMwLTAuMDM0LDAtMC4wNzItMC4wMDYtMC4xMDZjLTAuODU0LTAuNzI2LTEuNTI5LTEuMzA3LTIuNDMtMi4xOSYjMTA7JiM5OyYjOTsmIzk7QzgxLjkxNiw1My45OSw3OC4zMTksNDUuMTUsNzguMzE5LDM1LjgxQzc4LjMxOSwxNi4wNjUsOTQuMzg3LDAsMTE0LjEzMSwwczM1LjgxLDE2LjA2NSwzNS44MSwzNS44MSYjMTA7JiM5OyYjOTsmIzk7YzAsOS4zNTItMy41OTQsMTguMTkxLTEwLjEyNCwyNC44OTZsLTIuMjQyLDEuOTg3Yy0wLjA4MywwLjE5Mi0wLjExMSwwLjMzMi0wLjExMSwwLjQwM2MwLDAuMjU3LDAuMSwwLjUyMSwwLjI2MywwLjc2MWg5MC41MTkmIzEwOyYjOTsmIzk7JiM5O3Y5MC42MjJjMC4yNTIsMC4xMzcsMC41NzIsMC4yNDUsMC44ODcsMC4yNDVjMC41NDMtMC41NzcsMS4yMTItMS4zNjYsMi4xNzgtMi4zMzhjNi44MjItNi42MTksMTUuNjY4LTEwLjIxNiwyNC45ODgtMTAuMjE2JiMxMDsmIzk7JiM5OyYjOTtjMTkuNzM4LDAsMzUuODA3LDE2LjA3MSwzNS44MDcsMzUuODFjMCwxOS43NS0xNi4wNjgsMzUuODEyLTM1LjgwNywzNS44MTJjLTkuMzMyLDAtMTguMTc4LTMuNTk3LTI0LjkwOC0xMC4xMzhsLTEuOTc4LTIuMTYyJiMxMDsmIzk7JiM5OyYjOTtjLTAuMzY2LTAuMDU3LTAuODQxLDAuMDQxLTEuMTY3LDAuMjA2VjI5Mi4xMXogTTE0Ni45NzMsMjgwLjRoNjkuNTYydi04MC4xNzljMC0xLjM5NSwwLjM3MS0yLjc3MiwxLjA3NC0zLjk1NiYjMTA7JiM5OyYjOTsmIzk7YzMuNTM0LTYuMDk2LDEyLjUzNC04LjM4MywxOC42My00LjQwM2wxLjE1NCwwLjk5NWwyLjE2OCwyLjQxM2M0LjUyMiw0LjM5MiwxMC40Nyw2LjgxNiwxNi43MzYsNi44MTYmIzEwOyYjOTsmIzk7JiM5O2MxMy4yODksMCwyNC4wOTYtMTAuODEzLDI0LjA5Ni0yNC4wOTZjMC0xMy4yODktMTAuODEyLTI0LjEwNy0yNC4wOTYtMjQuMTA3Yy02LjI2MiwwLTEyLjIxNCwyLjQyNC0xNi43NDgsNi44MjcmIzEwOyYjOTsmIzk7JiM5O2MtMC41MjEsMC41MjYtMC45MjcsMS4wMjktMS4zMzIsMS41MjZjLTAuNzQ0LDAuOTMzLTEuNzM4LDEuODgxLTIuNTYyLDIuNDM2Yy03LjIzOCw0LjAzMS0xNC42NDksMS4wNzUtMTguMDU3LTQuNzg1JiMxMDsmIzk7JiM5OyYjOTtjLTAuNzAzLTEuMjI0LTEuMDYzLTIuNTYyLTEuMDYzLTMuOTM1Vjc1LjU3OGgtODAuMTczYy0xLjM2OSwwLTIuNzIyLTAuMzYzLTMuOTA1LTEuMDQxYy00LjEzNC0yLjM5LTYuNjk5LTYuNzctNi42OTktMTEuNDMmIzEwOyYjOTsmIzk7JiM5O2MwLTIuNDkzLDAuNzc4LTQuOTk1LDIuMjU2LTcuMjQybDEuNjE1LTEuNzg3bDEuNTk4LTEuMzQxYzQuNjQ5LTQuODc3LDYuOTk2LTEwLjczMiw2Ljk5Ni0xNi45MjgmIzEwOyYjOTsmIzk7JiM5O2MwLTEzLjI5Mi0xMC44MDctMjQuMDk5LTI0LjA5OS0yNC4wOTljLTEzLjI5MiwwLTI0LjEwMSwxMC44MDctMjQuMTAxLDI0LjA5OWMwLDYuMjcyLDIuNDI0LDEyLjIxNCw2LjgxNiwxNi43NDImIzEwOyYjOTsmIzk7JiM5O2MwLjUyNiwwLjUxNSwwLjk3OCwwLjg4OSwxLjQyNCwxLjI0MWMwLjk5NSwwLjgsMS45NzgsMS44MzMsMi41MzMsMi42NTZjMS4zNDEsMi40MDgsMS44ODcsNC41MzIsMS44ODcsNi42NTMmIzEwOyYjOTsmIzk7JiM5O2MwLDQuNjQzLTIuNTQ3LDkuMDEyLTYuNjUzLDExLjM5OGMtMS4yMDYsMC43MDQtMi41NywxLjA3Mi0zLjk1MSwxLjA3MkgxMS43MTZ2MjA0LjgxNkg4MS4yN2wtMy41ODgtOC4xOTkmIzEwOyYjOTsmIzk7JiM5O2MtMi4xOTYtNS4wMjYtMy4zMTQtMTAuMzczLTMuMzE0LTE1Ljg5NmMwLTIxLjkyMywxNy44MzQtMzkuNzYzLDM5Ljc2My0zOS43NjNjMjEuOTI2LDAsMzkuNzYzLDE3Ljg0LDM5Ljc2MywzOS43NjMmIzEwOyYjOTsmIzk7JiM5O2MwLDUuNTI5LTEuMTE0LDEwLjg3Ni0zLjMyMiwxNS45MDdMMTQ2Ljk3MywyODAuNHoiIHN0eWxlPSJmaWxsOiMwMzAzMDM7Ii8+JiN4YTsJPC9nPiYjeGE7PC9nPiYjeGE7PC9zdmc+;" vertex="1" parent="1">
          <mxGeometry x="600" y="380" width="50" height="50" as="geometry" />
        </mxCell>
        <mxCell id="pQi_TNxkMac2TIVI0rjQ-55" value="TimeWarp Blazor-State One Way Flow" style="text;strokeColor=none;fillColor=none;html=1;fontSize=12;fontStyle=1;verticalAlign=middle;align=center;" vertex="1" parent="1">
          <mxGeometry x="10" y="10" width="830" height="40" as="geometry" />
        </mxCell>
        <mxCell id="pQi_TNxkMac2TIVI0rjQ-58" value="IncrementCounterAction" style="text;html=1;align=center;verticalAlign=middle;resizable=0;points=[];autosize=1;strokeColor=none;fillColor=none;" vertex="1" parent="1">
          <mxGeometry x="135" y="107.5" width="150" height="30" as="geometry" />
        </mxCell>
      </root>
    </mxGraphModel>
  </diagram>
</mxfile>
